<mxfile host="app.diagrams.net" agent="Mozilla/5.0 (Windows NT 10.0; Win64; x64) AppleWebKit/537.36 (KHTML, like Gecko) Chrome/126.0.0.0 Safari/537.36" version="24.7.5">
  <diagram name="Sayfa -1" id="rR9uK_a4tHYQUOhyztXM">
    <mxGraphModel dx="3915" dy="-450" grid="1" gridSize="10" guides="1" tooltips="1" connect="1" arrows="1" fold="1" page="1" pageScale="1" pageWidth="827" pageHeight="1169" math="0" shadow="0">
      <root>
        <mxCell id="0" />
        <mxCell id="1" parent="0" />
        <mxCell id="RzSeIT2pYQGDsQenJ2ng-1" value="" style="group" parent="1" vertex="1" connectable="0">
          <mxGeometry x="-1656.66" y="1311.14" width="970" height="80" as="geometry" />
        </mxCell>
        <mxCell id="RzSeIT2pYQGDsQenJ2ng-2" value="" style="shape=table;startSize=0;container=1;collapsible=0;childLayout=tableLayout;fontSize=16;" parent="RzSeIT2pYQGDsQenJ2ng-1" vertex="1">
          <mxGeometry y="40" width="431.1111111111111" height="40" as="geometry" />
        </mxCell>
        <mxCell id="RzSeIT2pYQGDsQenJ2ng-3" value="" style="shape=tableRow;horizontal=0;startSize=0;swimlaneHead=0;swimlaneBody=0;strokeColor=inherit;top=0;left=0;bottom=0;right=0;collapsible=0;dropTarget=0;fillColor=none;points=[[0,0.5],[1,0.5]];portConstraint=eastwest;fontSize=16;" parent="RzSeIT2pYQGDsQenJ2ng-2" vertex="1">
          <mxGeometry width="431.1111111111111" height="40" as="geometry" />
        </mxCell>
        <mxCell id="RzSeIT2pYQGDsQenJ2ng-4" value="&lt;font size=&quot;1&quot;&gt;&lt;span style=&quot;text-decoration-line: underline; font-size: 16px;&quot;&gt;KullanıcıID&lt;/span&gt;&lt;/font&gt;" style="shape=partialRectangle;html=1;whiteSpace=wrap;connectable=0;strokeColor=inherit;overflow=hidden;fillColor=none;top=0;left=0;bottom=0;right=0;pointerEvents=1;fontSize=16;" parent="RzSeIT2pYQGDsQenJ2ng-3" vertex="1">
          <mxGeometry width="108" height="40" as="geometry">
            <mxRectangle width="108" height="40" as="alternateBounds" />
          </mxGeometry>
        </mxCell>
        <mxCell id="RzSeIT2pYQGDsQenJ2ng-5" value="&lt;font style=&quot;font-size: 16px;&quot;&gt;Email&lt;/font&gt;" style="shape=partialRectangle;html=1;whiteSpace=wrap;connectable=0;strokeColor=inherit;overflow=hidden;fillColor=none;top=0;left=0;bottom=0;right=0;pointerEvents=1;fontSize=16;" parent="RzSeIT2pYQGDsQenJ2ng-3" vertex="1">
          <mxGeometry x="108" width="108" height="40" as="geometry">
            <mxRectangle width="108" height="40" as="alternateBounds" />
          </mxGeometry>
        </mxCell>
        <mxCell id="RzSeIT2pYQGDsQenJ2ng-6" value="&lt;font style=&quot;font-size: 16px;&quot;&gt;Şifre&lt;/font&gt;" style="shape=partialRectangle;html=1;whiteSpace=wrap;connectable=0;strokeColor=inherit;overflow=hidden;fillColor=none;top=0;left=0;bottom=0;right=0;pointerEvents=1;fontSize=16;" parent="RzSeIT2pYQGDsQenJ2ng-3" vertex="1">
          <mxGeometry x="216" width="107" height="40" as="geometry">
            <mxRectangle width="107" height="40" as="alternateBounds" />
          </mxGeometry>
        </mxCell>
        <mxCell id="RzSeIT2pYQGDsQenJ2ng-7" value="&lt;font style=&quot;font-size: 16px;&quot;&gt;Rol&lt;/font&gt;" style="shape=partialRectangle;html=1;whiteSpace=wrap;connectable=0;strokeColor=inherit;overflow=hidden;fillColor=none;top=0;left=0;bottom=0;right=0;pointerEvents=1;fontSize=16;" parent="RzSeIT2pYQGDsQenJ2ng-3" vertex="1">
          <mxGeometry x="323" width="108" height="40" as="geometry">
            <mxRectangle width="108" height="40" as="alternateBounds" />
          </mxGeometry>
        </mxCell>
        <mxCell id="RzSeIT2pYQGDsQenJ2ng-8" value="Kullanıcı" style="text;strokeColor=none;fillColor=none;html=1;fontSize=24;fontStyle=1;verticalAlign=middle;align=left;" parent="RzSeIT2pYQGDsQenJ2ng-1" vertex="1">
          <mxGeometry width="179.62962962962962" height="40" as="geometry" />
        </mxCell>
        <mxCell id="RzSeIT2pYQGDsQenJ2ng-9" value="" style="group" parent="1" vertex="1" connectable="0">
          <mxGeometry x="-1655.66" y="1618" width="560" height="88.73" as="geometry" />
        </mxCell>
        <mxCell id="RzSeIT2pYQGDsQenJ2ng-10" value="" style="shape=table;startSize=0;container=1;collapsible=0;childLayout=tableLayout;fontSize=16;" parent="RzSeIT2pYQGDsQenJ2ng-9" vertex="1">
          <mxGeometry y="39.43555555555556" width="518.5185185185185" height="39.43555555555556" as="geometry" />
        </mxCell>
        <mxCell id="RzSeIT2pYQGDsQenJ2ng-11" value="" style="shape=tableRow;horizontal=0;startSize=0;swimlaneHead=0;swimlaneBody=0;strokeColor=inherit;top=0;left=0;bottom=0;right=0;collapsible=0;dropTarget=0;fillColor=none;points=[[0,0.5],[1,0.5]];portConstraint=eastwest;fontSize=16;" parent="RzSeIT2pYQGDsQenJ2ng-10" vertex="1">
          <mxGeometry width="518.5185185185185" height="39" as="geometry" />
        </mxCell>
        <mxCell id="RzSeIT2pYQGDsQenJ2ng-12" value="&lt;u&gt;KullanıcıID&lt;/u&gt;" style="shape=partialRectangle;html=1;whiteSpace=wrap;connectable=0;strokeColor=inherit;overflow=hidden;fillColor=none;top=0;left=0;bottom=0;right=0;pointerEvents=1;fontSize=16;" parent="RzSeIT2pYQGDsQenJ2ng-11" vertex="1">
          <mxGeometry width="115" height="39" as="geometry">
            <mxRectangle width="115" height="39" as="alternateBounds" />
          </mxGeometry>
        </mxCell>
        <mxCell id="RzSeIT2pYQGDsQenJ2ng-13" value="isim" style="shape=partialRectangle;html=1;whiteSpace=wrap;connectable=0;strokeColor=inherit;overflow=hidden;fillColor=none;top=0;left=0;bottom=0;right=0;pointerEvents=1;fontSize=16;" parent="RzSeIT2pYQGDsQenJ2ng-11" vertex="1">
          <mxGeometry x="115" width="73" height="39" as="geometry">
            <mxRectangle width="73" height="39" as="alternateBounds" />
          </mxGeometry>
        </mxCell>
        <mxCell id="RzSeIT2pYQGDsQenJ2ng-14" value="Soyisim" style="shape=partialRectangle;html=1;whiteSpace=wrap;connectable=0;strokeColor=inherit;overflow=hidden;fillColor=none;top=0;left=0;bottom=0;right=0;pointerEvents=1;fontSize=16;" parent="RzSeIT2pYQGDsQenJ2ng-11" vertex="1">
          <mxGeometry x="188" width="71" height="39" as="geometry">
            <mxRectangle width="71" height="39" as="alternateBounds" />
          </mxGeometry>
        </mxCell>
        <mxCell id="RzSeIT2pYQGDsQenJ2ng-15" value="İl" style="shape=partialRectangle;html=1;whiteSpace=wrap;connectable=0;strokeColor=inherit;overflow=hidden;fillColor=none;top=0;left=0;bottom=0;right=0;pointerEvents=1;fontSize=16;" parent="RzSeIT2pYQGDsQenJ2ng-11" vertex="1">
          <mxGeometry x="259" width="87" height="39" as="geometry">
            <mxRectangle width="87" height="39" as="alternateBounds" />
          </mxGeometry>
        </mxCell>
        <mxCell id="RzSeIT2pYQGDsQenJ2ng-16" value="İlçe" style="shape=partialRectangle;html=1;whiteSpace=wrap;connectable=0;strokeColor=inherit;overflow=hidden;fillColor=none;top=0;left=0;bottom=0;right=0;pointerEvents=1;fontSize=16;" parent="RzSeIT2pYQGDsQenJ2ng-11" vertex="1">
          <mxGeometry x="346" width="85" height="39" as="geometry">
            <mxRectangle width="85" height="39" as="alternateBounds" />
          </mxGeometry>
        </mxCell>
        <mxCell id="RzSeIT2pYQGDsQenJ2ng-17" value="Mahalle" style="shape=partialRectangle;html=1;whiteSpace=wrap;connectable=0;strokeColor=inherit;overflow=hidden;fillColor=none;top=0;left=0;bottom=0;right=0;pointerEvents=1;fontSize=16;" parent="RzSeIT2pYQGDsQenJ2ng-11" vertex="1">
          <mxGeometry x="431" width="88" height="39" as="geometry">
            <mxRectangle width="88" height="39" as="alternateBounds" />
          </mxGeometry>
        </mxCell>
        <mxCell id="RzSeIT2pYQGDsQenJ2ng-18" value="Hayvan Sahibi" style="text;strokeColor=none;fillColor=none;html=1;fontSize=24;fontStyle=1;verticalAlign=middle;align=left;" parent="RzSeIT2pYQGDsQenJ2ng-9" vertex="1">
          <mxGeometry width="103.7037037037037" height="39.43555555555556" as="geometry" />
        </mxCell>
        <mxCell id="RzSeIT2pYQGDsQenJ2ng-19" value="" style="group" parent="1" vertex="1" connectable="0">
          <mxGeometry x="-1656.66" y="1441.14" width="800" height="90" as="geometry" />
        </mxCell>
        <mxCell id="RzSeIT2pYQGDsQenJ2ng-20" value="" style="shape=table;startSize=0;container=1;collapsible=0;childLayout=tableLayout;fontSize=16;" parent="RzSeIT2pYQGDsQenJ2ng-19" vertex="1">
          <mxGeometry y="10" width="915" height="40" as="geometry" />
        </mxCell>
        <mxCell id="RzSeIT2pYQGDsQenJ2ng-21" value="" style="shape=tableRow;horizontal=0;startSize=0;swimlaneHead=0;swimlaneBody=0;strokeColor=inherit;top=0;left=0;bottom=0;right=0;collapsible=0;dropTarget=0;fillColor=none;points=[[0,0.5],[1,0.5]];portConstraint=eastwest;fontSize=16;" parent="RzSeIT2pYQGDsQenJ2ng-20" vertex="1">
          <mxGeometry width="915" height="40" as="geometry" />
        </mxCell>
        <mxCell id="RzSeIT2pYQGDsQenJ2ng-22" value="&lt;u&gt;KullanıcıID&lt;/u&gt;" style="shape=partialRectangle;html=1;whiteSpace=wrap;connectable=0;strokeColor=inherit;overflow=hidden;fillColor=none;top=0;left=0;bottom=0;right=0;pointerEvents=1;fontSize=16;" parent="RzSeIT2pYQGDsQenJ2ng-21" vertex="1">
          <mxGeometry width="83" height="40" as="geometry">
            <mxRectangle width="83" height="40" as="alternateBounds" />
          </mxGeometry>
        </mxCell>
        <mxCell id="RzSeIT2pYQGDsQenJ2ng-23" value="İsim" style="shape=partialRectangle;html=1;whiteSpace=wrap;connectable=0;strokeColor=inherit;overflow=hidden;fillColor=none;top=0;left=0;bottom=0;right=0;pointerEvents=1;fontSize=16;" parent="RzSeIT2pYQGDsQenJ2ng-21" vertex="1">
          <mxGeometry x="83" width="86" height="40" as="geometry">
            <mxRectangle width="86" height="40" as="alternateBounds" />
          </mxGeometry>
        </mxCell>
        <mxCell id="RzSeIT2pYQGDsQenJ2ng-24" value="Soyisim" style="shape=partialRectangle;html=1;whiteSpace=wrap;connectable=0;strokeColor=inherit;overflow=hidden;fillColor=none;top=0;left=0;bottom=0;right=0;pointerEvents=1;fontSize=16;" parent="RzSeIT2pYQGDsQenJ2ng-21" vertex="1">
          <mxGeometry x="169" width="82" height="40" as="geometry">
            <mxRectangle width="82" height="40" as="alternateBounds" />
          </mxGeometry>
        </mxCell>
        <mxCell id="RzSeIT2pYQGDsQenJ2ng-25" value="TCNO" style="shape=partialRectangle;html=1;whiteSpace=wrap;connectable=0;strokeColor=inherit;overflow=hidden;fillColor=none;top=0;left=0;bottom=0;right=0;pointerEvents=1;fontSize=16;" parent="RzSeIT2pYQGDsQenJ2ng-21" vertex="1">
          <mxGeometry x="251" width="84" height="40" as="geometry">
            <mxRectangle width="84" height="40" as="alternateBounds" />
          </mxGeometry>
        </mxCell>
        <mxCell id="RzSeIT2pYQGDsQenJ2ng-26" value="TelefonNo" style="shape=partialRectangle;html=1;whiteSpace=wrap;connectable=0;strokeColor=inherit;overflow=hidden;fillColor=none;top=0;left=0;bottom=0;right=0;pointerEvents=1;fontSize=16;" parent="RzSeIT2pYQGDsQenJ2ng-21" vertex="1">
          <mxGeometry x="335" width="95" height="40" as="geometry">
            <mxRectangle width="95" height="40" as="alternateBounds" />
          </mxGeometry>
        </mxCell>
        <mxCell id="RzSeIT2pYQGDsQenJ2ng-27" value="İlçe" style="shape=partialRectangle;html=1;whiteSpace=wrap;connectable=0;strokeColor=inherit;overflow=hidden;fillColor=none;top=0;left=0;bottom=0;right=0;pointerEvents=1;fontSize=16;" parent="RzSeIT2pYQGDsQenJ2ng-21" vertex="1">
          <mxGeometry x="430" width="80" height="40" as="geometry">
            <mxRectangle width="80" height="40" as="alternateBounds" />
          </mxGeometry>
        </mxCell>
        <mxCell id="RzSeIT2pYQGDsQenJ2ng-28" value="Mahalle" style="shape=partialRectangle;html=1;whiteSpace=wrap;connectable=0;strokeColor=inherit;overflow=hidden;fillColor=none;top=0;left=0;bottom=0;right=0;pointerEvents=1;fontSize=16;" parent="RzSeIT2pYQGDsQenJ2ng-21" vertex="1">
          <mxGeometry x="510" width="93" height="40" as="geometry">
            <mxRectangle width="93" height="40" as="alternateBounds" />
          </mxGeometry>
        </mxCell>
        <mxCell id="RzSeIT2pYQGDsQenJ2ng-29" value="İl" style="shape=partialRectangle;html=1;whiteSpace=wrap;connectable=0;strokeColor=inherit;overflow=hidden;fillColor=none;top=0;left=0;bottom=0;right=0;pointerEvents=1;fontSize=16;" parent="RzSeIT2pYQGDsQenJ2ng-21" vertex="1">
          <mxGeometry x="603" width="82" height="40" as="geometry">
            <mxRectangle width="82" height="40" as="alternateBounds" />
          </mxGeometry>
        </mxCell>
        <mxCell id="RzSeIT2pYQGDsQenJ2ng-30" value="OdaNo" style="shape=partialRectangle;html=1;whiteSpace=wrap;connectable=0;strokeColor=inherit;overflow=hidden;fillColor=none;top=0;left=0;bottom=0;right=0;pointerEvents=1;fontSize=16;" parent="RzSeIT2pYQGDsQenJ2ng-21" vertex="1">
          <mxGeometry x="685" width="115" height="40" as="geometry">
            <mxRectangle width="115" height="40" as="alternateBounds" />
          </mxGeometry>
        </mxCell>
        <mxCell id="RzSeIT2pYQGDsQenJ2ng-31" value="AdminID" style="shape=partialRectangle;html=1;whiteSpace=wrap;connectable=0;strokeColor=inherit;overflow=hidden;fillColor=none;top=0;left=0;bottom=0;right=0;pointerEvents=1;fontSize=16;" parent="RzSeIT2pYQGDsQenJ2ng-21" vertex="1">
          <mxGeometry x="800" width="115" height="40" as="geometry">
            <mxRectangle width="115" height="40" as="alternateBounds" />
          </mxGeometry>
        </mxCell>
        <mxCell id="RzSeIT2pYQGDsQenJ2ng-32" value="Veteriner" style="text;strokeColor=none;fillColor=none;html=1;fontSize=24;fontStyle=1;verticalAlign=middle;align=left;" parent="RzSeIT2pYQGDsQenJ2ng-19" vertex="1">
          <mxGeometry y="-35" width="111.33521581282776" height="40" as="geometry" />
        </mxCell>
        <mxCell id="RzSeIT2pYQGDsQenJ2ng-33" value="" style="shape=table;startSize=0;container=1;collapsible=0;childLayout=tableLayout;fontSize=16;" parent="1" vertex="1">
          <mxGeometry x="-690.0047887323943" y="1350" width="446.6714553990612" height="44.92000000000007" as="geometry" />
        </mxCell>
        <mxCell id="RzSeIT2pYQGDsQenJ2ng-34" value="" style="shape=tableRow;horizontal=0;startSize=0;swimlaneHead=0;swimlaneBody=0;strokeColor=inherit;top=0;left=0;bottom=0;right=0;collapsible=0;dropTarget=0;fillColor=none;points=[[0,0.5],[1,0.5]];portConstraint=eastwest;fontSize=16;" parent="RzSeIT2pYQGDsQenJ2ng-33" vertex="1">
          <mxGeometry width="446.6714553990612" height="45" as="geometry" />
        </mxCell>
        <mxCell id="RzSeIT2pYQGDsQenJ2ng-35" value="&lt;font style=&quot;font-size: 16px;&quot;&gt;&lt;u&gt;Hayvan SahibiID&lt;/u&gt;&lt;br&gt;&lt;/font&gt;" style="shape=partialRectangle;html=1;whiteSpace=wrap;connectable=0;strokeColor=inherit;overflow=hidden;fillColor=none;top=0;left=0;bottom=0;right=0;pointerEvents=1;fontSize=16;" parent="RzSeIT2pYQGDsQenJ2ng-34" vertex="1">
          <mxGeometry width="147" height="45" as="geometry">
            <mxRectangle width="147" height="45" as="alternateBounds" />
          </mxGeometry>
        </mxCell>
        <mxCell id="RzSeIT2pYQGDsQenJ2ng-36" value="&lt;u&gt;VeterinerID&lt;/u&gt;" style="shape=partialRectangle;html=1;whiteSpace=wrap;connectable=0;strokeColor=inherit;overflow=hidden;fillColor=none;top=0;left=0;bottom=0;right=0;pointerEvents=1;fontSize=16;" parent="RzSeIT2pYQGDsQenJ2ng-34" vertex="1">
          <mxGeometry x="147" width="100" height="45" as="geometry">
            <mxRectangle width="100" height="45" as="alternateBounds" />
          </mxGeometry>
        </mxCell>
        <mxCell id="RzSeIT2pYQGDsQenJ2ng-37" value="&lt;font style=&quot;font-size: 16px;&quot;&gt;Açıklama&lt;/font&gt;" style="shape=partialRectangle;html=1;whiteSpace=wrap;connectable=0;strokeColor=inherit;overflow=hidden;fillColor=none;top=0;left=0;bottom=0;right=0;pointerEvents=1;fontSize=16;" parent="RzSeIT2pYQGDsQenJ2ng-34" vertex="1">
          <mxGeometry x="247" width="100" height="45" as="geometry">
            <mxRectangle width="100" height="45" as="alternateBounds" />
          </mxGeometry>
        </mxCell>
        <mxCell id="RzSeIT2pYQGDsQenJ2ng-38" value="&lt;font style=&quot;font-size: 16px;&quot;&gt;Puan&lt;/font&gt;" style="shape=partialRectangle;html=1;whiteSpace=wrap;connectable=0;strokeColor=inherit;overflow=hidden;fillColor=none;top=0;left=0;bottom=0;right=0;pointerEvents=1;fontSize=16;" parent="RzSeIT2pYQGDsQenJ2ng-34" vertex="1">
          <mxGeometry x="347" width="100" height="45" as="geometry">
            <mxRectangle width="100" height="45" as="alternateBounds" />
          </mxGeometry>
        </mxCell>
        <mxCell id="RzSeIT2pYQGDsQenJ2ng-39" value="ReviewVerir" style="text;strokeColor=none;fillColor=none;html=1;fontSize=24;fontStyle=1;verticalAlign=middle;align=left;" parent="1" vertex="1">
          <mxGeometry x="-690.0047887323943" y="1310" width="164.81481481481484" height="40" as="geometry" />
        </mxCell>
        <mxCell id="RzSeIT2pYQGDsQenJ2ng-45" value="" style="shape=table;startSize=0;container=1;collapsible=0;childLayout=tableLayout;fontSize=16;" parent="1" vertex="1">
          <mxGeometry x="-622" y="1825.61" width="290" height="47.17" as="geometry" />
        </mxCell>
        <mxCell id="RzSeIT2pYQGDsQenJ2ng-46" value="" style="shape=tableRow;horizontal=0;startSize=0;swimlaneHead=0;swimlaneBody=0;strokeColor=inherit;top=0;left=0;bottom=0;right=0;collapsible=0;dropTarget=0;fillColor=none;points=[[0,0.5],[1,0.5]];portConstraint=eastwest;fontSize=16;" parent="RzSeIT2pYQGDsQenJ2ng-45" vertex="1">
          <mxGeometry width="290" height="47" as="geometry" />
        </mxCell>
        <mxCell id="RzSeIT2pYQGDsQenJ2ng-47" value="&lt;u&gt;FaturaID&lt;/u&gt;" style="shape=partialRectangle;html=1;whiteSpace=wrap;connectable=0;strokeColor=inherit;overflow=hidden;fillColor=none;top=0;left=0;bottom=0;right=0;pointerEvents=1;fontSize=16;" parent="RzSeIT2pYQGDsQenJ2ng-46" vertex="1">
          <mxGeometry width="97" height="47" as="geometry">
            <mxRectangle width="97" height="47" as="alternateBounds" />
          </mxGeometry>
        </mxCell>
        <mxCell id="RzSeIT2pYQGDsQenJ2ng-48" value="&lt;u&gt;SahipID&lt;/u&gt;" style="shape=partialRectangle;html=1;whiteSpace=wrap;connectable=0;strokeColor=inherit;overflow=hidden;fillColor=none;top=0;left=0;bottom=0;right=0;pointerEvents=1;fontSize=16;" parent="RzSeIT2pYQGDsQenJ2ng-46" vertex="1">
          <mxGeometry x="97" width="96" height="47" as="geometry">
            <mxRectangle width="96" height="47" as="alternateBounds" />
          </mxGeometry>
        </mxCell>
        <mxCell id="RzSeIT2pYQGDsQenJ2ng-49" value="Ücret" style="shape=partialRectangle;html=1;whiteSpace=wrap;connectable=0;strokeColor=inherit;overflow=hidden;fillColor=none;top=0;left=0;bottom=0;right=0;pointerEvents=1;fontSize=16;" parent="RzSeIT2pYQGDsQenJ2ng-46" vertex="1">
          <mxGeometry x="193" width="97" height="47" as="geometry">
            <mxRectangle width="97" height="47" as="alternateBounds" />
          </mxGeometry>
        </mxCell>
        <mxCell id="RzSeIT2pYQGDsQenJ2ng-50" value="&lt;div&gt;Muayene Faturası&lt;/div&gt;" style="text;strokeColor=none;fillColor=none;html=1;fontSize=24;fontStyle=1;verticalAlign=middle;align=left;" parent="1" vertex="1">
          <mxGeometry x="-622" y="1781.14" width="100" height="40" as="geometry" />
        </mxCell>
        <mxCell id="RzSeIT2pYQGDsQenJ2ng-51" value="" style="group" parent="1" vertex="1" connectable="0">
          <mxGeometry x="-1655.66" y="1731.14" width="540" height="80" as="geometry" />
        </mxCell>
        <mxCell id="RzSeIT2pYQGDsQenJ2ng-52" value="" style="shape=table;startSize=0;container=1;collapsible=0;childLayout=tableLayout;fontSize=16;" parent="RzSeIT2pYQGDsQenJ2ng-51" vertex="1">
          <mxGeometry y="40" width="365.65999999999985" height="40" as="geometry" />
        </mxCell>
        <mxCell id="RzSeIT2pYQGDsQenJ2ng-53" value="" style="shape=tableRow;horizontal=0;startSize=0;swimlaneHead=0;swimlaneBody=0;strokeColor=inherit;top=0;left=0;bottom=0;right=0;collapsible=0;dropTarget=0;fillColor=none;points=[[0,0.5],[1,0.5]];portConstraint=eastwest;fontSize=16;" parent="RzSeIT2pYQGDsQenJ2ng-52" vertex="1">
          <mxGeometry width="365.65999999999985" height="40" as="geometry" />
        </mxCell>
        <mxCell id="RzSeIT2pYQGDsQenJ2ng-54" value="&lt;u&gt;&lt;span style=&quot;&quot;&gt;&lt;font style=&quot;font-size: 16px;&quot;&gt;İlaçID&lt;/font&gt;&lt;/span&gt;&lt;/u&gt;" style="shape=partialRectangle;html=1;whiteSpace=wrap;connectable=0;strokeColor=inherit;overflow=hidden;fillColor=none;top=0;left=0;bottom=0;right=0;pointerEvents=1;fontSize=16;" parent="RzSeIT2pYQGDsQenJ2ng-53" vertex="1">
          <mxGeometry width="86" height="40" as="geometry">
            <mxRectangle width="86" height="40" as="alternateBounds" />
          </mxGeometry>
        </mxCell>
        <mxCell id="RzSeIT2pYQGDsQenJ2ng-55" value="&lt;font style=&quot;font-size: 16px;&quot;&gt;İsim&lt;/font&gt;" style="shape=partialRectangle;html=1;whiteSpace=wrap;connectable=0;strokeColor=inherit;overflow=hidden;fillColor=none;top=0;left=0;bottom=0;right=0;pointerEvents=1;fontSize=16;" parent="RzSeIT2pYQGDsQenJ2ng-53" vertex="1">
          <mxGeometry x="86" width="49" height="40" as="geometry">
            <mxRectangle width="49" height="40" as="alternateBounds" />
          </mxGeometry>
        </mxCell>
        <mxCell id="RzSeIT2pYQGDsQenJ2ng-56" value="&lt;font style=&quot;font-size: 16px;&quot;&gt;Fiyat&lt;/font&gt;" style="shape=partialRectangle;html=1;whiteSpace=wrap;connectable=0;strokeColor=inherit;overflow=hidden;fillColor=none;top=0;left=0;bottom=0;right=0;pointerEvents=1;fontSize=16;" parent="RzSeIT2pYQGDsQenJ2ng-53" vertex="1">
          <mxGeometry x="135" width="68" height="40" as="geometry">
            <mxRectangle width="68" height="40" as="alternateBounds" />
          </mxGeometry>
        </mxCell>
        <mxCell id="RzSeIT2pYQGDsQenJ2ng-57" value="&lt;div&gt;Miktar&lt;/div&gt;" style="shape=partialRectangle;html=1;whiteSpace=wrap;connectable=0;strokeColor=inherit;overflow=hidden;fillColor=none;top=0;left=0;bottom=0;right=0;pointerEvents=1;fontSize=16;" parent="RzSeIT2pYQGDsQenJ2ng-53" vertex="1">
          <mxGeometry x="203" width="67" height="40" as="geometry">
            <mxRectangle width="67" height="40" as="alternateBounds" />
          </mxGeometry>
        </mxCell>
        <mxCell id="RzSeIT2pYQGDsQenJ2ng-58" value="AdminID" style="shape=partialRectangle;html=1;whiteSpace=wrap;connectable=0;strokeColor=inherit;overflow=hidden;fillColor=none;top=0;left=0;bottom=0;right=0;pointerEvents=1;fontSize=16;" parent="RzSeIT2pYQGDsQenJ2ng-53" vertex="1">
          <mxGeometry x="270" width="96" height="40" as="geometry">
            <mxRectangle width="96" height="40" as="alternateBounds" />
          </mxGeometry>
        </mxCell>
        <mxCell id="RzSeIT2pYQGDsQenJ2ng-59" value="İlaçlar" style="text;strokeColor=none;fillColor=none;html=1;fontSize=24;fontStyle=1;verticalAlign=middle;align=left;" parent="RzSeIT2pYQGDsQenJ2ng-51" vertex="1">
          <mxGeometry width="100" height="40" as="geometry" />
        </mxCell>
        <mxCell id="RzSeIT2pYQGDsQenJ2ng-60" value="Admin" style="text;strokeColor=none;fillColor=none;html=1;fontSize=24;fontStyle=1;verticalAlign=middle;align=left;" parent="1" vertex="1">
          <mxGeometry x="-1655.66" y="1520.8600000000001" width="187.03703703703707" height="40" as="geometry" />
        </mxCell>
        <mxCell id="RzSeIT2pYQGDsQenJ2ng-61" value="" style="shape=table;startSize=0;container=1;collapsible=0;childLayout=tableLayout;fontSize=16;" parent="1" vertex="1">
          <mxGeometry x="-620.0033333333334" y="1691.9600000000005" width="256.6666666666667" height="39.18" as="geometry" />
        </mxCell>
        <mxCell id="RzSeIT2pYQGDsQenJ2ng-62" value="" style="shape=tableRow;horizontal=0;startSize=0;swimlaneHead=0;swimlaneBody=0;strokeColor=inherit;top=0;left=0;bottom=0;right=0;collapsible=0;dropTarget=0;fillColor=none;points=[[0,0.5],[1,0.5]];portConstraint=eastwest;fontSize=16;" parent="RzSeIT2pYQGDsQenJ2ng-61" vertex="1">
          <mxGeometry width="256.6666666666667" height="39" as="geometry" />
        </mxCell>
        <mxCell id="RzSeIT2pYQGDsQenJ2ng-63" value="&lt;u&gt;VeterinerID&lt;/u&gt;" style="shape=partialRectangle;html=1;whiteSpace=wrap;connectable=0;strokeColor=inherit;overflow=hidden;fillColor=none;top=0;left=0;bottom=0;right=0;pointerEvents=1;fontSize=16;" parent="RzSeIT2pYQGDsQenJ2ng-62" vertex="1">
          <mxGeometry width="85" height="39" as="geometry">
            <mxRectangle width="85" height="39" as="alternateBounds" />
          </mxGeometry>
        </mxCell>
        <mxCell id="RzSeIT2pYQGDsQenJ2ng-64" value="&lt;u&gt;SahipID&lt;/u&gt;" style="shape=partialRectangle;html=1;whiteSpace=wrap;connectable=0;strokeColor=inherit;overflow=hidden;fillColor=none;top=0;left=0;bottom=0;right=0;pointerEvents=1;fontSize=16;" parent="RzSeIT2pYQGDsQenJ2ng-62" vertex="1">
          <mxGeometry x="85" width="87" height="39" as="geometry">
            <mxRectangle width="87" height="39" as="alternateBounds" />
          </mxGeometry>
        </mxCell>
        <mxCell id="RzSeIT2pYQGDsQenJ2ng-65" value="Tarih" style="shape=partialRectangle;html=1;whiteSpace=wrap;connectable=0;strokeColor=inherit;overflow=hidden;fillColor=none;top=0;left=0;bottom=0;right=0;pointerEvents=1;fontSize=16;" parent="RzSeIT2pYQGDsQenJ2ng-62" vertex="1">
          <mxGeometry x="172" width="85" height="39" as="geometry">
            <mxRectangle width="85" height="39" as="alternateBounds" />
          </mxGeometry>
        </mxCell>
        <mxCell id="RzSeIT2pYQGDsQenJ2ng-67" value="&lt;div&gt;Randevu&lt;/div&gt;" style="text;strokeColor=none;fillColor=none;html=1;fontSize=24;fontStyle=1;verticalAlign=middle;align=left;" parent="1" vertex="1">
          <mxGeometry x="-620.0033333333334" y="1641.9600000000003" width="142.59259259259258" height="39.18" as="geometry" />
        </mxCell>
        <mxCell id="RzSeIT2pYQGDsQenJ2ng-68" value="" style="shape=table;startSize=0;container=1;collapsible=0;childLayout=tableLayout;fontSize=16;" parent="1" vertex="1">
          <mxGeometry x="-1655.66" y="1561.14" width="175.66" height="40" as="geometry" />
        </mxCell>
        <mxCell id="RzSeIT2pYQGDsQenJ2ng-69" value="" style="shape=tableRow;horizontal=0;startSize=0;swimlaneHead=0;swimlaneBody=0;strokeColor=inherit;top=0;left=0;bottom=0;right=0;collapsible=0;dropTarget=0;fillColor=none;points=[[0,0.5],[1,0.5]];portConstraint=eastwest;fontSize=16;" parent="RzSeIT2pYQGDsQenJ2ng-68" vertex="1">
          <mxGeometry width="175.66" height="40" as="geometry" />
        </mxCell>
        <mxCell id="RzSeIT2pYQGDsQenJ2ng-70" value="&lt;u&gt;KullanıcıID&lt;/u&gt;" style="shape=partialRectangle;html=1;whiteSpace=wrap;connectable=0;strokeColor=inherit;overflow=hidden;fillColor=none;top=0;left=0;bottom=0;right=0;pointerEvents=1;fontSize=16;" parent="RzSeIT2pYQGDsQenJ2ng-69" vertex="1">
          <mxGeometry width="176" height="40" as="geometry">
            <mxRectangle width="176" height="40" as="alternateBounds" />
          </mxGeometry>
        </mxCell>
        <mxCell id="RzSeIT2pYQGDsQenJ2ng-71" value="" style="group" parent="1" connectable="0" vertex="1">
          <mxGeometry x="-1655.66" y="1949.42" width="640" height="80" as="geometry" />
        </mxCell>
        <mxCell id="RzSeIT2pYQGDsQenJ2ng-72" value="" style="shape=table;startSize=0;container=1;collapsible=0;childLayout=tableLayout;fontSize=16;" parent="RzSeIT2pYQGDsQenJ2ng-71" vertex="1">
          <mxGeometry y="40" width="369.8822222222221" height="40" as="geometry" />
        </mxCell>
        <mxCell id="RzSeIT2pYQGDsQenJ2ng-73" value="" style="shape=tableRow;horizontal=0;startSize=0;swimlaneHead=0;swimlaneBody=0;strokeColor=inherit;top=0;left=0;bottom=0;right=0;collapsible=0;dropTarget=0;fillColor=none;points=[[0,0.5],[1,0.5]];portConstraint=eastwest;fontSize=16;" parent="RzSeIT2pYQGDsQenJ2ng-72" vertex="1">
          <mxGeometry width="369.8822222222221" height="40" as="geometry" />
        </mxCell>
        <mxCell id="RzSeIT2pYQGDsQenJ2ng-74" value="&lt;u&gt;ReçeteID&lt;/u&gt;" style="shape=partialRectangle;html=1;whiteSpace=wrap;connectable=0;strokeColor=inherit;overflow=hidden;fillColor=none;top=0;left=0;bottom=0;right=0;pointerEvents=1;fontSize=16;" parent="RzSeIT2pYQGDsQenJ2ng-73" vertex="1">
          <mxGeometry width="71" height="40" as="geometry">
            <mxRectangle width="71" height="40" as="alternateBounds" />
          </mxGeometry>
        </mxCell>
        <mxCell id="RzSeIT2pYQGDsQenJ2ng-75" value="Tarih" style="shape=partialRectangle;html=1;whiteSpace=wrap;connectable=0;strokeColor=inherit;overflow=hidden;fillColor=none;top=0;left=0;bottom=0;right=0;pointerEvents=1;fontSize=16;" parent="RzSeIT2pYQGDsQenJ2ng-73" vertex="1">
          <mxGeometry x="71" width="71" height="40" as="geometry">
            <mxRectangle width="71" height="40" as="alternateBounds" />
          </mxGeometry>
        </mxCell>
        <mxCell id="RzSeIT2pYQGDsQenJ2ng-76" value="VeterinerID" style="shape=partialRectangle;html=1;whiteSpace=wrap;connectable=0;strokeColor=inherit;overflow=hidden;fillColor=none;top=0;left=0;bottom=0;right=0;pointerEvents=1;fontSize=16;" parent="RzSeIT2pYQGDsQenJ2ng-73" vertex="1">
          <mxGeometry x="142" width="114" height="40" as="geometry">
            <mxRectangle width="114" height="40" as="alternateBounds" />
          </mxGeometry>
        </mxCell>
        <mxCell id="RzSeIT2pYQGDsQenJ2ng-77" value="HastaHayvanID" style="shape=partialRectangle;html=1;whiteSpace=wrap;connectable=0;strokeColor=inherit;overflow=hidden;fillColor=none;top=0;left=0;bottom=0;right=0;pointerEvents=1;fontSize=16;" parent="RzSeIT2pYQGDsQenJ2ng-73" vertex="1">
          <mxGeometry x="256" width="114" height="40" as="geometry">
            <mxRectangle width="114" height="40" as="alternateBounds" />
          </mxGeometry>
        </mxCell>
        <mxCell id="RzSeIT2pYQGDsQenJ2ng-78" value="Reçete" style="text;strokeColor=none;fillColor=none;html=1;fontSize=24;fontStyle=1;verticalAlign=middle;align=left;" parent="RzSeIT2pYQGDsQenJ2ng-71" vertex="1">
          <mxGeometry width="118.51851851851852" height="40" as="geometry" />
        </mxCell>
        <mxCell id="RzSeIT2pYQGDsQenJ2ng-79" value="" style="group" parent="1" connectable="0" vertex="1">
          <mxGeometry x="-1350" y="2080" width="730" height="80" as="geometry" />
        </mxCell>
        <mxCell id="RzSeIT2pYQGDsQenJ2ng-80" value="" style="shape=table;startSize=0;container=1;collapsible=0;childLayout=tableLayout;fontSize=16;" parent="RzSeIT2pYQGDsQenJ2ng-79" vertex="1">
          <mxGeometry x="-305.65999999999997" y="4.8700000000000045" width="567" height="45.13000000000011" as="geometry" />
        </mxCell>
        <mxCell id="RzSeIT2pYQGDsQenJ2ng-81" value="" style="shape=tableRow;horizontal=0;startSize=0;swimlaneHead=0;swimlaneBody=0;strokeColor=inherit;top=0;left=0;bottom=0;right=0;collapsible=0;dropTarget=0;fillColor=none;points=[[0,0.5],[1,0.5]];portConstraint=eastwest;fontSize=16;" parent="RzSeIT2pYQGDsQenJ2ng-80" vertex="1">
          <mxGeometry width="567" height="45" as="geometry" />
        </mxCell>
        <mxCell id="RzSeIT2pYQGDsQenJ2ng-82" value="&lt;u&gt;SahipID&lt;/u&gt;" style="shape=partialRectangle;html=1;whiteSpace=wrap;connectable=0;strokeColor=inherit;overflow=hidden;fillColor=none;top=0;left=0;bottom=0;right=0;pointerEvents=1;fontSize=16;" parent="RzSeIT2pYQGDsQenJ2ng-81" vertex="1">
          <mxGeometry width="81" height="45" as="geometry">
            <mxRectangle width="81" height="45" as="alternateBounds" />
          </mxGeometry>
        </mxCell>
        <mxCell id="RzSeIT2pYQGDsQenJ2ng-83" value="&lt;u&gt;HastaID&lt;/u&gt;" style="shape=partialRectangle;html=1;whiteSpace=wrap;connectable=0;strokeColor=inherit;overflow=hidden;fillColor=none;top=0;left=0;bottom=0;right=0;pointerEvents=1;fontSize=16;" parent="RzSeIT2pYQGDsQenJ2ng-81" vertex="1">
          <mxGeometry x="81" width="81" height="45" as="geometry">
            <mxRectangle width="81" height="45" as="alternateBounds" />
          </mxGeometry>
        </mxCell>
        <mxCell id="RzSeIT2pYQGDsQenJ2ng-84" value="yaş" style="shape=partialRectangle;html=1;whiteSpace=wrap;connectable=0;strokeColor=inherit;overflow=hidden;fillColor=none;top=0;left=0;bottom=0;right=0;pointerEvents=1;fontSize=16;" parent="RzSeIT2pYQGDsQenJ2ng-81" vertex="1">
          <mxGeometry x="162" width="81" height="45" as="geometry">
            <mxRectangle width="81" height="45" as="alternateBounds" />
          </mxGeometry>
        </mxCell>
        <mxCell id="RzSeIT2pYQGDsQenJ2ng-85" value="boy" style="shape=partialRectangle;html=1;whiteSpace=wrap;connectable=0;strokeColor=inherit;overflow=hidden;fillColor=none;top=0;left=0;bottom=0;right=0;pointerEvents=1;fontSize=16;" parent="RzSeIT2pYQGDsQenJ2ng-81" vertex="1">
          <mxGeometry x="243" width="81" height="45" as="geometry">
            <mxRectangle width="81" height="45" as="alternateBounds" />
          </mxGeometry>
        </mxCell>
        <mxCell id="RzSeIT2pYQGDsQenJ2ng-86" value="isim" style="shape=partialRectangle;html=1;whiteSpace=wrap;connectable=0;strokeColor=inherit;overflow=hidden;fillColor=none;top=0;left=0;bottom=0;right=0;pointerEvents=1;fontSize=16;" parent="RzSeIT2pYQGDsQenJ2ng-81" vertex="1">
          <mxGeometry x="324" width="81" height="45" as="geometry">
            <mxRectangle width="81" height="45" as="alternateBounds" />
          </mxGeometry>
        </mxCell>
        <mxCell id="RzSeIT2pYQGDsQenJ2ng-87" value="kilo" style="shape=partialRectangle;html=1;whiteSpace=wrap;connectable=0;strokeColor=inherit;overflow=hidden;fillColor=none;top=0;left=0;bottom=0;right=0;pointerEvents=1;fontSize=16;" parent="RzSeIT2pYQGDsQenJ2ng-81" vertex="1">
          <mxGeometry x="405" width="81" height="45" as="geometry">
            <mxRectangle width="81" height="45" as="alternateBounds" />
          </mxGeometry>
        </mxCell>
        <mxCell id="RzSeIT2pYQGDsQenJ2ng-88" value="tür" style="shape=partialRectangle;html=1;whiteSpace=wrap;connectable=0;strokeColor=inherit;overflow=hidden;fillColor=none;top=0;left=0;bottom=0;right=0;pointerEvents=1;fontSize=16;" parent="RzSeIT2pYQGDsQenJ2ng-81" vertex="1">
          <mxGeometry x="486" width="81" height="45" as="geometry">
            <mxRectangle width="81" height="45" as="alternateBounds" />
          </mxGeometry>
        </mxCell>
        <mxCell id="RzSeIT2pYQGDsQenJ2ng-89" value="Hasta Hayvan" style="text;strokeColor=none;fillColor=none;html=1;fontSize=24;fontStyle=1;verticalAlign=middle;align=left;" parent="RzSeIT2pYQGDsQenJ2ng-79" vertex="1">
          <mxGeometry x="-305.65999999999997" y="-35.129999999999995" width="135.1851851851852" height="40" as="geometry" />
        </mxCell>
        <mxCell id="RzSeIT2pYQGDsQenJ2ng-90" value="" style="shape=partialRectangle;html=1;whiteSpace=wrap;connectable=0;overflow=hidden;top=0;left=0;bottom=0;right=0;pointerEvents=1;fontSize=16;" parent="RzSeIT2pYQGDsQenJ2ng-79" vertex="1">
          <mxGeometry x="261.34000000000015" y="4.869999999999891" width="81" height="45" as="geometry">
            <mxRectangle width="81" height="45" as="alternateBounds" />
          </mxGeometry>
        </mxCell>
        <mxCell id="RzSeIT2pYQGDsQenJ2ng-91" value="&lt;font style=&quot;font-size: 16px;&quot;&gt;cinsiyet&lt;/font&gt;" style="rounded=0;whiteSpace=wrap;html=1;" parent="RzSeIT2pYQGDsQenJ2ng-79" vertex="1">
          <mxGeometry x="261.34" y="4.87" width="78.66" height="45.13" as="geometry" />
        </mxCell>
        <mxCell id="RzSeIT2pYQGDsQenJ2ng-92" style="edgeStyle=orthogonalEdgeStyle;rounded=0;orthogonalLoop=1;jettySize=auto;html=1;" parent="1" source="RzSeIT2pYQGDsQenJ2ng-21" target="RzSeIT2pYQGDsQenJ2ng-3" edge="1">
          <mxGeometry relative="1" as="geometry">
            <Array as="points">
              <mxPoint x="-1690" y="1471" />
              <mxPoint x="-1690" y="1390" />
            </Array>
          </mxGeometry>
        </mxCell>
        <mxCell id="RzSeIT2pYQGDsQenJ2ng-93" style="edgeStyle=orthogonalEdgeStyle;rounded=0;orthogonalLoop=1;jettySize=auto;html=1;" parent="1" source="RzSeIT2pYQGDsQenJ2ng-69" target="RzSeIT2pYQGDsQenJ2ng-3" edge="1">
          <mxGeometry relative="1" as="geometry">
            <Array as="points">
              <mxPoint x="-1710" y="1581" />
              <mxPoint x="-1710" y="1371" />
            </Array>
          </mxGeometry>
        </mxCell>
        <mxCell id="RzSeIT2pYQGDsQenJ2ng-94" style="edgeStyle=orthogonalEdgeStyle;rounded=0;orthogonalLoop=1;jettySize=auto;html=1;" parent="1" source="RzSeIT2pYQGDsQenJ2ng-11" target="RzSeIT2pYQGDsQenJ2ng-3" edge="1">
          <mxGeometry relative="1" as="geometry">
            <Array as="points">
              <mxPoint x="-1730" y="1677" />
              <mxPoint x="-1730" y="1360" />
            </Array>
          </mxGeometry>
        </mxCell>
        <mxCell id="RzSeIT2pYQGDsQenJ2ng-95" style="edgeStyle=orthogonalEdgeStyle;rounded=0;orthogonalLoop=1;jettySize=auto;html=1;" parent="1" source="RzSeIT2pYQGDsQenJ2ng-73" target="RzSeIT2pYQGDsQenJ2ng-21" edge="1">
          <mxGeometry relative="1" as="geometry">
            <Array as="points">
              <mxPoint x="-1471" y="1940" />
              <mxPoint x="-1050" y="1940" />
              <mxPoint x="-1050" y="1530" />
              <mxPoint x="-1616" y="1530" />
            </Array>
          </mxGeometry>
        </mxCell>
        <mxCell id="RzSeIT2pYQGDsQenJ2ng-96" value="" style="shape=table;startSize=0;container=1;collapsible=0;childLayout=tableLayout;fontSize=16;" parent="1" vertex="1">
          <mxGeometry x="-620" y="1937.2300000000002" width="240" height="33.08999999999953" as="geometry" />
        </mxCell>
        <mxCell id="RzSeIT2pYQGDsQenJ2ng-97" value="" style="shape=tableRow;horizontal=0;startSize=0;swimlaneHead=0;swimlaneBody=0;strokeColor=inherit;top=0;left=0;bottom=0;right=0;collapsible=0;dropTarget=0;fillColor=none;points=[[0,0.5],[1,0.5]];portConstraint=eastwest;fontSize=16;" parent="RzSeIT2pYQGDsQenJ2ng-96" vertex="1">
          <mxGeometry width="240" height="33" as="geometry" />
        </mxCell>
        <mxCell id="RzSeIT2pYQGDsQenJ2ng-98" value="&lt;u&gt;İlaçID&lt;/u&gt;" style="shape=partialRectangle;html=1;whiteSpace=wrap;connectable=0;strokeColor=inherit;overflow=hidden;fillColor=none;top=0;left=0;bottom=0;right=0;pointerEvents=1;fontSize=16;" parent="RzSeIT2pYQGDsQenJ2ng-97" vertex="1">
          <mxGeometry width="120" height="33" as="geometry">
            <mxRectangle width="120" height="33" as="alternateBounds" />
          </mxGeometry>
        </mxCell>
        <mxCell id="RzSeIT2pYQGDsQenJ2ng-99" value="&lt;div&gt;&lt;u&gt;&lt;font style=&quot;font-size: 16px;&quot;&gt;ReçeteID&lt;/font&gt;&lt;/u&gt;&lt;/div&gt;" style="shape=partialRectangle;html=1;whiteSpace=wrap;connectable=0;strokeColor=inherit;overflow=hidden;fillColor=none;top=0;left=0;bottom=0;right=0;pointerEvents=1;fontSize=16;" parent="RzSeIT2pYQGDsQenJ2ng-97" vertex="1">
          <mxGeometry x="120" width="120" height="33" as="geometry">
            <mxRectangle width="120" height="33" as="alternateBounds" />
          </mxGeometry>
        </mxCell>
        <mxCell id="RzSeIT2pYQGDsQenJ2ng-100" value="İçerir" style="text;strokeColor=none;fillColor=none;html=1;fontSize=24;fontStyle=1;verticalAlign=middle;align=left;" parent="1" vertex="1">
          <mxGeometry x="-620" y="1893.9100000000003" width="100" height="43.32" as="geometry" />
        </mxCell>
        <mxCell id="RzSeIT2pYQGDsQenJ2ng-101" value="" style="shape=table;startSize=0;container=1;collapsible=0;childLayout=tableLayout;fontSize=16;" parent="1" vertex="1">
          <mxGeometry x="-620" y="2057.46" width="240" height="42.62999999999949" as="geometry" />
        </mxCell>
        <mxCell id="RzSeIT2pYQGDsQenJ2ng-102" value="" style="shape=tableRow;horizontal=0;startSize=0;swimlaneHead=0;swimlaneBody=0;strokeColor=inherit;top=0;left=0;bottom=0;right=0;collapsible=0;dropTarget=0;fillColor=none;points=[[0,0.5],[1,0.5]];portConstraint=eastwest;fontSize=16;" parent="RzSeIT2pYQGDsQenJ2ng-101" vertex="1">
          <mxGeometry width="240" height="43" as="geometry" />
        </mxCell>
        <mxCell id="RzSeIT2pYQGDsQenJ2ng-103" value="&lt;u&gt;HayvanID&lt;/u&gt;" style="shape=partialRectangle;html=1;whiteSpace=wrap;connectable=0;strokeColor=inherit;overflow=hidden;fillColor=none;top=0;left=0;bottom=0;right=0;pointerEvents=1;fontSize=16;" parent="RzSeIT2pYQGDsQenJ2ng-102" vertex="1">
          <mxGeometry width="120" height="43" as="geometry">
            <mxRectangle width="120" height="43" as="alternateBounds" />
          </mxGeometry>
        </mxCell>
        <mxCell id="RzSeIT2pYQGDsQenJ2ng-104" value="Renk" style="shape=partialRectangle;html=1;whiteSpace=wrap;connectable=0;strokeColor=inherit;overflow=hidden;fillColor=none;top=0;left=0;bottom=0;right=0;pointerEvents=1;fontSize=16;" parent="RzSeIT2pYQGDsQenJ2ng-102" vertex="1">
          <mxGeometry x="120" width="120" height="43" as="geometry">
            <mxRectangle width="120" height="43" as="alternateBounds" />
          </mxGeometry>
        </mxCell>
        <mxCell id="RzSeIT2pYQGDsQenJ2ng-105" value="Renkler" style="text;strokeColor=none;fillColor=none;html=1;fontSize=24;fontStyle=1;verticalAlign=middle;align=left;" parent="1" vertex="1">
          <mxGeometry x="-620" y="2014.14" width="100" height="43.32" as="geometry" />
        </mxCell>
        <mxCell id="RzSeIT2pYQGDsQenJ2ng-106" style="edgeStyle=orthogonalEdgeStyle;rounded=0;orthogonalLoop=1;jettySize=auto;html=1;" parent="1" source="RzSeIT2pYQGDsQenJ2ng-81" target="RzSeIT2pYQGDsQenJ2ng-11" edge="1">
          <mxGeometry relative="1" as="geometry">
            <Array as="points">
              <mxPoint x="-1690" y="2105" />
              <mxPoint x="-1690" y="1730" />
              <mxPoint x="-1600" y="1730" />
            </Array>
          </mxGeometry>
        </mxCell>
        <mxCell id="RzSeIT2pYQGDsQenJ2ng-107" style="edgeStyle=orthogonalEdgeStyle;rounded=0;orthogonalLoop=1;jettySize=auto;html=1;" parent="1" source="RzSeIT2pYQGDsQenJ2ng-97" target="RzSeIT2pYQGDsQenJ2ng-73" edge="1">
          <mxGeometry relative="1" as="geometry">
            <Array as="points">
              <mxPoint x="-450" y="2050" />
              <mxPoint x="-1620" y="2050" />
            </Array>
          </mxGeometry>
        </mxCell>
        <mxCell id="RzSeIT2pYQGDsQenJ2ng-108" style="edgeStyle=orthogonalEdgeStyle;rounded=0;orthogonalLoop=1;jettySize=auto;html=1;entryX=1;entryY=1;entryDx=0;entryDy=0;" parent="1" source="RzSeIT2pYQGDsQenJ2ng-34" target="RzSeIT2pYQGDsQenJ2ng-18" edge="1">
          <mxGeometry relative="1" as="geometry">
            <Array as="points">
              <mxPoint x="-610" y="1650" />
              <mxPoint x="-1552" y="1650" />
              <mxPoint x="-1552" y="1657" />
            </Array>
          </mxGeometry>
        </mxCell>
        <mxCell id="RzSeIT2pYQGDsQenJ2ng-109" style="edgeStyle=orthogonalEdgeStyle;rounded=0;orthogonalLoop=1;jettySize=auto;html=1;entryX=0.061;entryY=-0.004;entryDx=0;entryDy=0;entryPerimeter=0;" parent="1" source="RzSeIT2pYQGDsQenJ2ng-34" target="RzSeIT2pYQGDsQenJ2ng-21" edge="1">
          <mxGeometry relative="1" as="geometry">
            <Array as="points">
              <mxPoint x="-490" y="1440" />
              <mxPoint x="-1601" y="1440" />
            </Array>
          </mxGeometry>
        </mxCell>
        <mxCell id="RzSeIT2pYQGDsQenJ2ng-110" style="edgeStyle=orthogonalEdgeStyle;rounded=0;orthogonalLoop=1;jettySize=auto;html=1;" parent="1" source="RzSeIT2pYQGDsQenJ2ng-46" target="RzSeIT2pYQGDsQenJ2ng-11" edge="1">
          <mxGeometry relative="1" as="geometry">
            <Array as="points">
              <mxPoint x="-477" y="1760" />
              <mxPoint x="-1584" y="1760" />
            </Array>
          </mxGeometry>
        </mxCell>
        <mxCell id="RzSeIT2pYQGDsQenJ2ng-113" style="edgeStyle=orthogonalEdgeStyle;rounded=0;orthogonalLoop=1;jettySize=auto;html=1;" parent="1" source="RzSeIT2pYQGDsQenJ2ng-21" target="RzSeIT2pYQGDsQenJ2ng-69" edge="1">
          <mxGeometry relative="1" as="geometry">
            <Array as="points">
              <mxPoint x="-720" y="1471" />
              <mxPoint x="-720" y="1510" />
              <mxPoint x="-1568" y="1510" />
            </Array>
          </mxGeometry>
        </mxCell>
        <mxCell id="RzSeIT2pYQGDsQenJ2ng-115" style="edgeStyle=orthogonalEdgeStyle;rounded=0;orthogonalLoop=1;jettySize=auto;html=1;entryX=0.222;entryY=1.009;entryDx=0;entryDy=0;entryPerimeter=0;" parent="1" source="RzSeIT2pYQGDsQenJ2ng-102" target="RzSeIT2pYQGDsQenJ2ng-81" edge="1">
          <mxGeometry relative="1" as="geometry">
            <mxPoint x="-1100" y="2120" as="targetPoint" />
            <Array as="points">
              <mxPoint x="-680" y="2079" />
              <mxPoint x="-680" y="2170" />
              <mxPoint x="-1530" y="2170" />
            </Array>
          </mxGeometry>
        </mxCell>
        <mxCell id="RzSeIT2pYQGDsQenJ2ng-116" style="edgeStyle=orthogonalEdgeStyle;rounded=0;orthogonalLoop=1;jettySize=auto;html=1;" parent="1" source="RzSeIT2pYQGDsQenJ2ng-72" target="RzSeIT2pYQGDsQenJ2ng-81" edge="1">
          <mxGeometry relative="1" as="geometry">
            <mxPoint x="-1640" y="2250" as="targetPoint" />
            <Array as="points">
              <mxPoint x="-970" y="2009" />
              <mxPoint x="-970" y="2150" />
              <mxPoint x="-1620" y="2150" />
            </Array>
          </mxGeometry>
        </mxCell>
        <mxCell id="RzSeIT2pYQGDsQenJ2ng-117" style="edgeStyle=orthogonalEdgeStyle;rounded=0;orthogonalLoop=1;jettySize=auto;html=1;" parent="1" source="RzSeIT2pYQGDsQenJ2ng-97" target="RzSeIT2pYQGDsQenJ2ng-53" edge="1">
          <mxGeometry relative="1" as="geometry">
            <Array as="points">
              <mxPoint x="-955" y="1954" />
              <mxPoint x="-955" y="1840" />
              <mxPoint x="-1610" y="1840" />
            </Array>
          </mxGeometry>
        </mxCell>
        <mxCell id="RzSeIT2pYQGDsQenJ2ng-118" style="edgeStyle=orthogonalEdgeStyle;rounded=0;orthogonalLoop=1;jettySize=auto;html=1;" parent="1" source="RzSeIT2pYQGDsQenJ2ng-53" target="RzSeIT2pYQGDsQenJ2ng-69" edge="1">
          <mxGeometry relative="1" as="geometry">
            <Array as="points">
              <mxPoint x="-1100" y="1791" />
              <mxPoint x="-1100" y="1581" />
            </Array>
          </mxGeometry>
        </mxCell>
        <mxCell id="RzSeIT2pYQGDsQenJ2ng-119" value="" style="shape=table;startSize=0;container=1;collapsible=0;childLayout=tableLayout;fontSize=16;" parent="1" vertex="1">
          <mxGeometry x="-600" y="2243.32" width="240" height="42.62999999999949" as="geometry" />
        </mxCell>
        <mxCell id="RzSeIT2pYQGDsQenJ2ng-120" value="" style="shape=tableRow;horizontal=0;startSize=0;swimlaneHead=0;swimlaneBody=0;strokeColor=inherit;top=0;left=0;bottom=0;right=0;collapsible=0;dropTarget=0;fillColor=none;points=[[0,0.5],[1,0.5]];portConstraint=eastwest;fontSize=16;" parent="RzSeIT2pYQGDsQenJ2ng-119" vertex="1">
          <mxGeometry width="240" height="43" as="geometry" />
        </mxCell>
        <mxCell id="RzSeIT2pYQGDsQenJ2ng-121" value="&lt;u&gt;VeterinerID&lt;/u&gt;" style="shape=partialRectangle;html=1;whiteSpace=wrap;connectable=0;strokeColor=inherit;overflow=hidden;fillColor=none;top=0;left=0;bottom=0;right=0;pointerEvents=1;fontSize=16;" parent="RzSeIT2pYQGDsQenJ2ng-120" vertex="1">
          <mxGeometry width="120" height="43" as="geometry">
            <mxRectangle width="120" height="43" as="alternateBounds" />
          </mxGeometry>
        </mxCell>
        <mxCell id="RzSeIT2pYQGDsQenJ2ng-122" value="&lt;u&gt;SaatID&lt;/u&gt;" style="shape=partialRectangle;html=1;whiteSpace=wrap;connectable=0;strokeColor=inherit;overflow=hidden;fillColor=none;top=0;left=0;bottom=0;right=0;pointerEvents=1;fontSize=16;" parent="RzSeIT2pYQGDsQenJ2ng-120" vertex="1">
          <mxGeometry x="120" width="120" height="43" as="geometry">
            <mxRectangle width="120" height="43" as="alternateBounds" />
          </mxGeometry>
        </mxCell>
        <mxCell id="RzSeIT2pYQGDsQenJ2ng-123" value="Uygundur" style="text;strokeColor=none;fillColor=none;html=1;fontSize=24;fontStyle=1;verticalAlign=middle;align=left;" parent="1" vertex="1">
          <mxGeometry x="-610" y="2206.68" width="100" height="43.32" as="geometry" />
        </mxCell>
        <mxCell id="RzSeIT2pYQGDsQenJ2ng-124" value="" style="shape=table;startSize=0;container=1;collapsible=0;childLayout=tableLayout;fontSize=16;" parent="1" vertex="1">
          <mxGeometry x="-1654.0033333333333" y="2250.0000000000005" width="341.6666666666667" height="39.18" as="geometry" />
        </mxCell>
        <mxCell id="RzSeIT2pYQGDsQenJ2ng-125" value="" style="shape=tableRow;horizontal=0;startSize=0;swimlaneHead=0;swimlaneBody=0;strokeColor=inherit;top=0;left=0;bottom=0;right=0;collapsible=0;dropTarget=0;fillColor=none;points=[[0,0.5],[1,0.5]];portConstraint=eastwest;fontSize=16;" parent="RzSeIT2pYQGDsQenJ2ng-124" vertex="1">
          <mxGeometry width="341.6666666666667" height="39" as="geometry" />
        </mxCell>
        <mxCell id="RzSeIT2pYQGDsQenJ2ng-126" value="&lt;u&gt;SaatID&lt;/u&gt;" style="shape=partialRectangle;html=1;whiteSpace=wrap;connectable=0;strokeColor=inherit;overflow=hidden;fillColor=none;top=0;left=0;bottom=0;right=0;pointerEvents=1;fontSize=16;" parent="RzSeIT2pYQGDsQenJ2ng-125" vertex="1">
          <mxGeometry width="85" height="39" as="geometry">
            <mxRectangle width="85" height="39" as="alternateBounds" />
          </mxGeometry>
        </mxCell>
        <mxCell id="RzSeIT2pYQGDsQenJ2ng-127" value="Gün" style="shape=partialRectangle;html=1;whiteSpace=wrap;connectable=0;strokeColor=inherit;overflow=hidden;fillColor=none;top=0;left=0;bottom=0;right=0;pointerEvents=1;fontSize=16;" parent="RzSeIT2pYQGDsQenJ2ng-125" vertex="1">
          <mxGeometry x="85" width="87" height="39" as="geometry">
            <mxRectangle width="87" height="39" as="alternateBounds" />
          </mxGeometry>
        </mxCell>
        <mxCell id="RzSeIT2pYQGDsQenJ2ng-128" value="Saat" style="shape=partialRectangle;html=1;whiteSpace=wrap;connectable=0;strokeColor=inherit;overflow=hidden;fillColor=none;top=0;left=0;bottom=0;right=0;pointerEvents=1;fontSize=16;" parent="RzSeIT2pYQGDsQenJ2ng-125" vertex="1">
          <mxGeometry x="172" width="85" height="39" as="geometry">
            <mxRectangle width="85" height="39" as="alternateBounds" />
          </mxGeometry>
        </mxCell>
        <mxCell id="RzSeIT2pYQGDsQenJ2ng-129" value="Dakika" style="shape=partialRectangle;html=1;whiteSpace=wrap;connectable=0;strokeColor=inherit;overflow=hidden;fillColor=none;top=0;left=0;bottom=0;right=0;pointerEvents=1;fontSize=16;" parent="RzSeIT2pYQGDsQenJ2ng-125" vertex="1">
          <mxGeometry x="257" width="85" height="39" as="geometry">
            <mxRectangle width="85" height="39" as="alternateBounds" />
          </mxGeometry>
        </mxCell>
        <mxCell id="RzSeIT2pYQGDsQenJ2ng-130" value="Saatler" style="text;strokeColor=none;fillColor=none;html=1;fontSize=24;fontStyle=1;verticalAlign=middle;align=left;" parent="1" vertex="1">
          <mxGeometry x="-1656.6633333333334" y="2210.8200000000006" width="142.59259259259258" height="39.18" as="geometry" />
        </mxCell>
        <mxCell id="RzSeIT2pYQGDsQenJ2ng-131" style="edgeStyle=orthogonalEdgeStyle;rounded=0;orthogonalLoop=1;jettySize=auto;html=1;entryX=0.133;entryY=0.996;entryDx=0;entryDy=0;entryPerimeter=0;exitX=0.774;exitY=0.959;exitDx=0;exitDy=0;exitPerimeter=0;" parent="1" source="RzSeIT2pYQGDsQenJ2ng-120" target="RzSeIT2pYQGDsQenJ2ng-125" edge="1">
          <mxGeometry relative="1" as="geometry">
            <Array as="points">
              <mxPoint x="-414" y="2310" />
              <mxPoint x="-956" y="2310" />
              <mxPoint x="-1609" y="2309" />
            </Array>
          </mxGeometry>
        </mxCell>
        <mxCell id="RzSeIT2pYQGDsQenJ2ng-132" style="edgeStyle=orthogonalEdgeStyle;rounded=0;orthogonalLoop=1;jettySize=auto;html=1;entryX=0.016;entryY=0.971;entryDx=0;entryDy=0;entryPerimeter=0;exitX=0;exitY=0.5;exitDx=0;exitDy=0;" parent="1" source="RzSeIT2pYQGDsQenJ2ng-120" target="RzSeIT2pYQGDsQenJ2ng-20" edge="1">
          <mxGeometry relative="1" as="geometry">
            <mxPoint x="-600" y="2265" as="sourcePoint" />
            <Array as="points">
              <mxPoint x="-630" y="2265" />
              <mxPoint x="-630" y="2200" />
              <mxPoint x="-1700" y="2200" />
              <mxPoint x="-1700" y="1499" />
              <mxPoint x="-1642" y="1499" />
            </Array>
          </mxGeometry>
        </mxCell>
        <mxCell id="RzSeIT2pYQGDsQenJ2ng-133" value="&lt;u style=&quot;font-size: 16px;&quot;&gt;VeterinerID&lt;/u&gt;" style="rounded=0;whiteSpace=wrap;html=1;" parent="1" vertex="1">
          <mxGeometry x="-620" y="2150" width="120" height="40" as="geometry" />
        </mxCell>
        <mxCell id="RzSeIT2pYQGDsQenJ2ng-134" value="&lt;span style=&quot;font-size: 16px;&quot;&gt;Yetkinlik&lt;/span&gt;" style="rounded=0;whiteSpace=wrap;html=1;" parent="1" vertex="1">
          <mxGeometry x="-500" y="2150" width="120" height="40" as="geometry" />
        </mxCell>
        <mxCell id="RzSeIT2pYQGDsQenJ2ng-135" value="Yetkinlik" style="text;strokeColor=none;fillColor=none;html=1;fontSize=24;fontStyle=1;verticalAlign=middle;align=left;" parent="1" vertex="1">
          <mxGeometry x="-620" y="2106.6800000000003" width="100" height="43.32" as="geometry" />
        </mxCell>
        <mxCell id="RzSeIT2pYQGDsQenJ2ng-136" style="edgeStyle=orthogonalEdgeStyle;rounded=0;orthogonalLoop=1;jettySize=auto;html=1;exitX=0.774;exitY=0.959;exitDx=0;exitDy=0;exitPerimeter=0;" parent="1" target="RzSeIT2pYQGDsQenJ2ng-21" edge="1">
          <mxGeometry relative="1" as="geometry">
            <Array as="points">
              <mxPoint x="-565" y="2215" />
              <mxPoint x="-1090" y="2215" />
              <mxPoint x="-1090" y="2214" />
              <mxPoint x="-1740" y="2214" />
              <mxPoint x="-1740" y="1520" />
              <mxPoint x="-1630" y="1520" />
            </Array>
            <mxPoint x="-565" y="2190" as="sourcePoint" />
            <mxPoint x="-1630" y="1500" as="targetPoint" />
          </mxGeometry>
        </mxCell>
        <mxCell id="RzSeIT2pYQGDsQenJ2ng-137" style="edgeStyle=orthogonalEdgeStyle;rounded=0;orthogonalLoop=1;jettySize=auto;html=1;entryX=0.068;entryY=0.998;entryDx=0;entryDy=0;entryPerimeter=0;" parent="1" source="RzSeIT2pYQGDsQenJ2ng-62" target="RzSeIT2pYQGDsQenJ2ng-21" edge="1">
          <mxGeometry relative="1" as="geometry">
            <Array as="points">
              <mxPoint x="-680" y="1712" />
              <mxPoint x="-680" y="1520" />
              <mxPoint x="-1594" y="1520" />
            </Array>
          </mxGeometry>
        </mxCell>
        <mxCell id="RzSeIT2pYQGDsQenJ2ng-138" style="edgeStyle=orthogonalEdgeStyle;rounded=0;orthogonalLoop=1;jettySize=auto;html=1;entryX=0.181;entryY=1.211;entryDx=0;entryDy=0;entryPerimeter=0;" parent="1" source="RzSeIT2pYQGDsQenJ2ng-62" target="RzSeIT2pYQGDsQenJ2ng-10" edge="1">
          <mxGeometry relative="1" as="geometry">
            <Array as="points">
              <mxPoint x="-492" y="1740" />
              <mxPoint x="-1562" y="1740" />
            </Array>
          </mxGeometry>
        </mxCell>
        <mxCell id="uyrSZ75OWUEKeTLe1Kqs-1" value="&lt;span style=&quot;font-size: 16px;&quot;&gt;Anonim&lt;/span&gt;" style="rounded=0;whiteSpace=wrap;html=1;" vertex="1" parent="1">
          <mxGeometry x="-250" y="1350" width="106.67" height="44.92" as="geometry" />
        </mxCell>
      </root>
    </mxGraphModel>
  </diagram>
</mxfile>
